# xmcd
#
# Track frame offsets:
#	150
#	15137
#	32245
#	48180
#	64845
#	77180
#	90352
#	103730
#	119482
#	132500
#	144102
#	154912
#	168647
#	180482
#	195705
#	212655
#	225895
#	238415
#	249377
#
# Disc length: 3476 seconds
#
# Revision: 3
# Processed by: cddbd v1.5.2PL0 Copyright (c) Steve Scherf et al.
# Submitted via: dBpowerAMP V4.0
#
DISCID=f80d9213
DTITLE=Various Artist - Country Songs That Will Live Forever disc 4
DYEAR=1993
DGENRE=Country
TTITLE0=Alabama - Love in the First Degree
TTITLE1=Roy Drusky - One Day at a Time
TTITLE2=Clint Black - Nobody's Home
TTITLE3=The Judds - Cry Myself to Sleep
TTITLE4=Donna Fargo - But You Know I Love You
TTITLE5=The Oak Ridge Boys - No Matter How High
TTITLE6=Lee Greenwood - Heart's Aren't Made to Break (They're Made to Love)
TTITLE7=George Strait - What's Going On in Your World
TTITLE8=Reba McEntire - Angel in Your Arms
TTITLE9=Patti Page - On the Road Again
TTITLE10=Hank Williams Jr, The Mike Curb Congregation - Make The World go Away
TTITLE11=Baillie, The Boys - (Now and Then, There's) a Fool Such as I
TTITLE12=Mel Tillis, The Statesiders - Welcome to My World
TTITLE13=Barbara Mandrell, Ray Price - Crazy Arms
TTITLE14=Skeeter Davis - It Wasn't God Who Made Honky Tonk Angels
TTITLE15=Sawyer Brown - The Race is On
TTITLE16=Loretta Lynn - I Fall to Pieces
TTITLE17=Waylon Jennings - I've Got a Tiger by the Tail
TTITLE18=Conway Twitty - There Stands the Glass
EXTD=corrections and additions
EXTT0=
EXTT1=
EXTT2=
EXTT3=
EXTT4=
EXTT5=
EXTT6=
EXTT7=
EXTT8=
EXTT9=
EXTT10=
EXTT11=
EXTT12=
EXTT13=
EXTT14=
EXTT15=
EXTT16=
EXTT17=
EXTT18=
PLAYORDER=
